inDegrees=no
num_controls=7
num_derivatives=13
num_iterations=115
num_multipliers=7
num_parameters=0
num_slacks=7
num_states=26
objective=0.445581
objective_accelerations=0.057629
objective_balance=0.003523
objective_effort=0.022977
objective_height=0.355914
objective_ligament=0.005538
solver_duration=1617.016645
status=Solve_Succeeded
success=true
DataType=double
version=3
OpenSimVersion=4.5
endheader
time	/jointset/ground_pelvis/pelvis_tilt/value	/jointset/ground_pelvis/pelvis_tx/value	/jointset/ground_pelvis/pelvis_ty/value	/jointset/hip_l/hip_flexion_l/value	/jointset/hip_l/hip_adduction_l/value	/jointset/hip_l/hip_rotation_l/value	/jointset/back/lumbar_extension/value	/jointset/patellofemoral_l/patellar_flexion_l/value	/jointset/knee_l/knee_flexion_l/value	/jointset/knee_l/knee_adduction_l/value	/jointset/knee_l/knee_rotation_l/value	/jointset/ankle_l/ankle_angle_l/value	/jointset/subtalar_l/subtalar_angle_l/value	/jointset/ground_pelvis/pelvis_tilt/speed	/jointset/ground_pelvis/pelvis_tx/speed	/jointset/ground_pelvis/pelvis_ty/speed	/jointset/hip_l/hip_flexion_l/speed	/jointset/hip_l/hip_adduction_l/speed	/jointset/hip_l/hip_rotation_l/speed	/jointset/back/lumbar_extension/speed	/jointset/patellofemoral_l/patellar_flexion_l/speed	/jointset/knee_l/knee_flexion_l/speed	/jointset/knee_l/knee_adduction_l/speed	/jointset/knee_l/knee_rotation_l/speed	/jointset/ankle_l/ankle_angle_l/speed	/jointset/subtalar_l/subtalar_angle_l/speed	/forceset/tau_hip_flexion_l	/forceset/tau_hip_adduction_l	/forceset/tau_hip_rotation_l	/forceset/tau_knee_flexion_l	/forceset/tau_ankle_angle_l	/forceset/tau_subtalar_angle_l	/forceset/tau_lumbar_extension	lambda_cid13_p0	lambda_cid13_p1	lambda_cid13_p2	lambda_cid13_p3	lambda_cid13_p4	lambda_cid13_p5	lambda_cid14_p0	/jointset/ground_pelvis/pelvis_tilt/accel	/jointset/ground_pelvis/pelvis_tx/accel	/jointset/ground_pelvis/pelvis_ty/accel	/jointset/hip_l/hip_flexion_l/accel	/jointset/hip_l/hip_adduction_l/accel	/jointset/hip_l/hip_rotation_l/accel	/jointset/back/lumbar_extension/accel	/jointset/patellofemoral_l/patellar_flexion_l/accel	/jointset/knee_l/knee_flexion_l/accel	/jointset/knee_l/knee_adduction_l/accel	/jointset/knee_l/knee_rotation_l/accel	/jointset/ankle_l/ankle_angle_l/accel	/jointset/subtalar_l/subtalar_angle_l/accel	gamma_cid13_p0	gamma_cid13_p1	gamma_cid13_p2	gamma_cid13_p3	gamma_cid13_p4	gamma_cid13_p5	gamma_cid14_p0
0	-0.03972853418218601	0.06900363258032373	0.8959590385923603	0.1955287580552426	-0.321921260069384	-0.4851022910875338	-0.1379045077516729	0.07015288079084962	0.07015288079084844	-0.1745328100066025	-0.1194830490897061	-0.06701059314715049	0.003930842339964345	0	0	0	0	0	0	0	0	0	0	0	0	0	0.1073687949126105	-0.0999436064298847	-0.03077570758810113	-0.2362868964426401	0.196095807732959	-0.0162684744348665	-0.0520662160933041	27.25681552246221	-0.8452156512562607	3.383347501367863	-1.52085451031963	-515.1488752805607	-80.18548326200279	-39.95865442031437	-4.459935153613164	-1.827922253075082	-0.9772781178071255	12.55076378087667	-2.143587825053161	3.369128232690632	-2.850022332609972	10.27171611103565	10.27171611103686	0.6652428799728185	-0.8311853113116717	2.368647106716752	-1.063061440730775	-2.910561597957503e-08	1.101276081033305e-07	1.335605467295603e-07	8.904349835181891e-09	-1.012875262922722e-08	-4.850006123205958e-08	-8.814215546451004e-09
0.01	-0.03994130860420669	0.06891368730930424	0.8959116166345907	0.1961355664687252	-0.3220266681990885	-0.4849331117460718	-0.1380524535559967	0.07065187953173732	0.07065187953174025	-0.174502764750913	-0.1195183676276466	-0.06689664499893996	0.003877147314193076	-0.04235204476834816	-0.01788573247365239	-0.009451110836257264	0.1207923967561823	-0.0209656788047472	0.03369438021747802	-0.02928947417413722	0.09935451199093116	0.09935451199093828	0.006016364626833909	-0.00701740888604778	0.0227213826599191	-0.01065020842040786	0.1029106698503517	-0.1006663932729953	-0.02996688728650518	-0.2311648124571185	0.1884814132638742	-0.01178496451899621	-0.04819509576042461	24.95342715100507	-2.354983863840511	3.585079406938824	-1.019994866205927	-516.0913994999329	-83.25712101806548	-39.96877616000181	-4.092424928903744	-1.75339870419054	-0.9240374846413693	11.75807273769095	-2.055697236114493	3.348353881903336	-2.923456956146635	9.70053507802117	9.700535078021256	0.5709645666075809	-0.6300595565605244	2.213648294431767	-1.052713820795635	-6.946589220599941e-08	1.459283239335405e-07	2.051340950593337e-07	4.773765929977565e-08	-2.390494006009007e-07	-9.4133105114062e-08	-1.347632482786756e-08
0.02	-0.0405715206320039	0.06864798472161208	0.8957706815848373	0.1979332178727063	-0.3223382609824255	-0.484431236409306	-0.1384843035013283	0.07213106665951202	0.07213106665951169	-0.1744123295864132	-0.1196224684303097	-0.0665575301343696	0.003719607548597756	-0.08348752115500609	-0.03515146333452938	-0.01870261839678509	0.2381685981004467	-0.04123693072665255	0.06653919906003285	-0.05678082820150983	0.1960376773778343	0.196037677377833	0.01207798175642115	-0.0137564529444638	0.04503334327192837	-0.02076894796481068	0.09845254478804354	-0.1013891801161124	-0.02915806698492293	-0.2260427284716371	0.1808670187947691	-0.007301454603143688	-0.04432397542756196	22.71348562981708	-3.877065599798717	3.790151361686318	-0.6789535772373771	-516.1067280220211	-86.16436402070237	-39.99854149127302	-4.216621477275079	-1.703921930520034	-0.9373574626612396	11.86752469849307	-2.004702448484808	3.199215957705993	-2.490398303257021	9.737446790230054	9.737446790228161	0.6742933805234488	-0.7755123457853305	2.286762697134743	-0.956767665529804	-1.098261684324238e-07	1.817290397637505e-07	2.76707643389107e-07	8.65709687643694e-08	-4.679700485725743e-07	-1.397661489960644e-07	-1.813843410928412e-08
0.03	-0.04160767041169072	0.0682125326367292	0.8955378915823266	0.200888958285327	-0.3228490821435319	-0.4836053101989747	-0.1391821683304156	0.07456434567855971	0.07456434567856132	-0.1742610710044397	-0.1197929618253042	-0.06599741563457023	0.003463493539109746	-0.1235432023426511	-0.05185202253741469	-0.02784691524204071	0.3524409077674613	-0.06081130163481045	0.09851405984369561	-0.0825664989964872	0.290169259582256	0.2901692595822518	0.01814958797742358	-0.02028793992153785	0.06689025864358533	-0.03038380974668052	0.09401618120337973	-0.09764660864793495	-0.02840398616309508	-0.2216589685278379	0.1759738955682142	-0.007109495590806016	-0.04064414489491214	21.1833040092273	-3.778009818413647	3.872020478630905	-0.1727602159112759	-516.0038217663489	-85.36088211774153	-40.0467155045386	-3.870168732973973	-1.640065778469943	-0.9017902849011207	11.12627778377409	-1.916453977019906	3.176787887516426	-2.588805674635345	9.183687554625799	9.183687554626569	0.5700348110336489	-0.5837907383284434	2.120259404334885	-0.9533984973648013	-1.390745230691716e-07	1.988320162213953e-07	3.350555458989777e-07	1.135695652203695e-07	-6.346743470621955e-07	-1.768381499371192e-07	-2.268611181551553e-08
0.04	-0.04303840246194887	0.06761268638715794	0.8952138937134745	0.2049712605312113	-0.3235521769267272	-0.4824636020310425	-0.1401311207088561	0.07792547524347006	0.07792547524346959	-0.1740498082466211	-0.1200271348629958	-0.06522171129162357	0.003113320299233184	-0.1624039752688774	-0.06803029627220718	-0.03694419166504634	0.4634809647532136	-0.07969165514451271	0.1296955905801584	-0.1069983380721487	0.3816077865497804	0.3816077865497835	0.02407881692422527	-0.02649238148501293	0.08815131190139001	-0.03958079404252007	0.08957981761872463	-0.09390403717976027	-0.02764990534129839	-0.2172752085840354	0.1710807723416574	-0.00691753657847187	-0.03696431436225098	19.71124618124615	-3.68883968425604	3.955133579120734	0.1843583430787526	-515.0562267442034	-84.40178628471271	-40.11177549867183	-3.977639824991306	-1.599464836901499	-0.9279533782112428	11.22107416224059	-1.865898968793688	3.040549948265999	-2.219631959393825	9.198835742850608	9.198835742850735	0.6458179256832888	-0.7101032630655443	2.167590274364247	-0.8731921683237697	-1.680937659205652e-07	2.155494722796057e-07	3.93130754680603e-07	1.403241469751614e-07	-8.000958342222897e-07	-2.137336345288762e-07	-2.72314301078256e-08
0.05	-0.04485242629630174	0.06685368392376707	0.8947988907984631	0.2101491078604823	-0.3244405281867314	-0.4810143708038817	-0.1413167549147419	0.08218842140628613	0.08218842140628577	-0.1737796542552223	-0.1203223417904726	-0.06423600907051247	0.002673538990495617	-0.2001921964617931	-0.08367807749296166	-0.04606445980684	0.5715441186786628	-0.09785043832063035	0.1600156311673593	-0.129893148746212	0.4705310998633301	0.4705310998633327	0.02993020251672343	-0.03249506813192431	0.1088927502866356	-0.04829201895524208	0.08452311970823947	-0.09015803869951794	-0.02680702063163761	-0.2128910954522925	0.1657957959467803	-0.00634355106418812	-0.03286298901571583	18.11856190525654	-3.737352236136732	4.052074362363348	0.6419002228993996	-514.2310235737743	-83.68729043895354	-40.19180705691934	-3.648135900105501	-1.533588646767693	-0.9054351585103427	10.51725373935848	-1.771705660933192	3.007424524649359	-2.289102467538522	8.671532686129884	8.671532686129645	0.5516132784034662	-0.5372105795303318	2.012959174651039	-0.8576481201879699	-1.857896590729203e-07	2.195656407836734e-07	4.287986393187209e-07	1.575771152531277e-07	-9.044013024331807e-07	-2.371556169147668e-07	-3.002463925830209e-08
0.06	-0.04703807686931789	0.06594097287174749	0.8942924108767644	0.2163912502753401	-0.3255066348122788	-0.4792660004887077	-0.1427242765965932	0.08732709141434176	0.08732709141434146	-0.1734516235274213	-0.1206759474272243	-0.06304578475473964	0.002149133339142505	-0.2367293230012519	-0.09877201399794665	-0.05523959300251879	0.6763399818705682	-0.1152427282532425	0.1895234081826487	-0.1513758332653073	0.5567525555977894	0.556752555597787	0.03565416420403582	-0.0381721233398921	0.1290557308337335	-0.05650566256562695	0.0794664217977623	-0.08641204021928051	-0.02596413592197428	-0.2085069823205533	0.1605108195518993	-0.005769565549911699	-0.02876166366916699	16.57798057312096	-3.793713113957912	4.14881113475861	0.9649360286018698	-512.6482294051391	-82.83024092498555	-40.28466915873403	-3.727420894299864	-1.488695893747632	-0.9389263889882687	10.56761601553181	-1.712600320092593	2.878097233883724	-1.937206728400207	8.658464227032535	8.65846422703177	0.6203331446461267	-0.6449769752768328	2.051898706734668	-0.7736759078563646	-2.030087796063685e-07	2.230470182328298e-07	4.635230576771121e-07	1.744300155952276e-07	-1.006133464583053e-06	-2.60010293944621e-07	-3.274407539228032e-08
0.07000000000000001	-0.04958371805735743	0.06488007872518317	0.893693652725232	0.2236666447406634	-0.3267428744509067	-0.4772268700970757	-0.1443389072413643	0.09331555719487235	0.09331555719487222	-0.1730667893719286	-0.1210853417710954	-0.06165642748965316	0.001545240556950156	-0.2721941713148031	-0.1133116415410993	-0.06453425916819652	0.7782024832225292	-0.1318731684134299	0.2181693120902292	-0.1713344638222514	0.6404906315718497	0.6404906315718621	0.04128157868287229	-0.04365083673156181	0.1487180488933362	-0.06418705641128263	0.07438650574160154	-0.08322074292294705	-0.0251670125969936	-0.2050179709823484	0.1559261642569888	-0.004855043262442522	-0.0247001343455831	15.26025779653647	-4.012966533824275	4.244076357465903	1.182017946089674	-511.2467706129108	-82.30804737462292	-40.38794584675218	-3.425316077478274	-1.422285028327784	-0.9282724698046995	9.915075889940972	-1.618528002777365	2.837769560325977	-1.992816439289409	8.163990523877315	8.163990523880038	0.529372285936632	-0.490870403853758	1.908741743823984	-0.75258203402807	-2.10362861312625e-07	2.047074575432977e-07	4.805724247330528e-07	1.809019949158541e-07	-1.054187277286935e-06	-2.738997561162236e-07	-3.536140600043174e-08
0.08	-0.05247786758405279	0.06367665053444148	0.8930012407641534	0.2319445659584894	-0.3281414709188952	-0.4749052941481423	-0.1461466492356944	0.100127905983403	0.1001279059834025	-0.1726265957343598	-0.1215478336254271	-0.06007337836632049	0.0008670916540796496	-0.3064309907321699	-0.127278822833423	-0.07397035491176512	0.8768453323709974	-0.1477140941254393	0.2460125196430403	-0.1899981031771064	0.7215291571972915	0.7215291571973245	0.04672606061907753	-0.0487916254329011	0.1677941024829751	-0.0713568867012547	0.06930658968545948	-0.08002944562661508	-0.02436988927203256	-0.2015289596441311	0.151341508962082	-0.003940520974972702	-0.02063860502198568	13.98830206765324	-4.238722633642245	4.338652958045918	1.280965316277322	-509.1767203107118	-81.65941407070545	-40.49907083298032	-3.481815115062945	-1.374206643581851	-0.9672123045664377	9.923685574833227	-1.554697430456973	2.717557962929837	-1.678208487982362	8.11855415730883	8.11855415730926	0.5837466361198793	-0.5773920372107555	1.934645812741872	-0.6713631967196635	-2.170804889009981e-07	1.84960094393205e-07	4.964814658985129e-07	1.867042373963857e-07	-1.098777970671721e-06	-2.872108173292293e-07	-3.797214915530401e-08
